<mxfile host="app.diagrams.net" modified="2023-07-06T06:22:31.562Z" agent="Mozilla/5.0 (X11; Linux x86_64) AppleWebKit/537.36 (KHTML, like Gecko) Chrome/114.0.0.0 Safari/537.36" etag="WH3ooXrRypGynaJNnyD4" version="21.5.2" type="github">
  <diagram name="Page-1" id="2YBvvXClWsGukQMizWep">
    <mxGraphModel dx="2537" dy="944" grid="1" gridSize="10" guides="1" tooltips="1" connect="1" arrows="1" fold="1" page="1" pageScale="1" pageWidth="850" pageHeight="1100" math="0" shadow="0">
      <root>
        <mxCell id="0" />
        <mxCell id="1" parent="0" />
        <mxCell id="aM9ryv3xv72pqoxQDRHE-1" value="&lt;div style=&quot;font-family: &amp;quot;Source Code Pro&amp;quot;, monospace; font-size: 11.3pt;&quot;&gt;&lt;font style=&quot;&quot; color=&quot;#000000&quot;&gt;DeviceListFragment&lt;/font&gt;&lt;/div&gt;" style="shape=umlLifeline;perimeter=lifelinePerimeter;whiteSpace=wrap;html=1;container=0;dropTarget=0;collapsible=0;recursiveResize=0;outlineConnect=0;portConstraint=eastwest;newEdgeStyle={&quot;edgeStyle&quot;:&quot;elbowEdgeStyle&quot;,&quot;elbow&quot;:&quot;vertical&quot;,&quot;curved&quot;:0,&quot;rounded&quot;:0};fillColor=default;fontColor=#333333;strokeColor=#666666;" parent="1" vertex="1">
          <mxGeometry y="40" width="180" height="480" as="geometry" />
        </mxCell>
        <mxCell id="aM9ryv3xv72pqoxQDRHE-2" value="" style="html=1;points=[];perimeter=orthogonalPerimeter;outlineConnect=0;targetShapes=umlLifeline;portConstraint=eastwest;newEdgeStyle={&quot;edgeStyle&quot;:&quot;elbowEdgeStyle&quot;,&quot;elbow&quot;:&quot;vertical&quot;,&quot;curved&quot;:0,&quot;rounded&quot;:0};" parent="aM9ryv3xv72pqoxQDRHE-1" vertex="1">
          <mxGeometry x="85" y="65" width="10" height="45" as="geometry" />
        </mxCell>
        <mxCell id="aM9ryv3xv72pqoxQDRHE-3" value="init" style="html=1;verticalAlign=bottom;startArrow=oval;endArrow=block;startSize=8;edgeStyle=elbowEdgeStyle;elbow=vertical;curved=0;rounded=0;" parent="aM9ryv3xv72pqoxQDRHE-1" target="aM9ryv3xv72pqoxQDRHE-2" edge="1">
          <mxGeometry relative="1" as="geometry">
            <mxPoint x="-15" y="70" as="sourcePoint" />
          </mxGeometry>
        </mxCell>
        <mxCell id="R8YRZGteAIU25TCS1daA-9" value="" style="html=1;points=[];perimeter=orthogonalPerimeter;outlineConnect=0;targetShapes=umlLifeline;portConstraint=eastwest;newEdgeStyle={&quot;edgeStyle&quot;:&quot;elbowEdgeStyle&quot;,&quot;elbow&quot;:&quot;vertical&quot;,&quot;curved&quot;:0,&quot;rounded&quot;:0};" parent="aM9ryv3xv72pqoxQDRHE-1" vertex="1">
          <mxGeometry x="85" y="160" width="10" height="45" as="geometry" />
        </mxCell>
        <mxCell id="R8YRZGteAIU25TCS1daA-45" value="" style="html=1;points=[];perimeter=orthogonalPerimeter;outlineConnect=0;targetShapes=umlLifeline;portConstraint=eastwest;newEdgeStyle={&quot;edgeStyle&quot;:&quot;elbowEdgeStyle&quot;,&quot;elbow&quot;:&quot;vertical&quot;,&quot;curved&quot;:0,&quot;rounded&quot;:0};" parent="aM9ryv3xv72pqoxQDRHE-1" vertex="1">
          <mxGeometry x="85" y="370" width="10" height="90" as="geometry" />
        </mxCell>
        <mxCell id="aM9ryv3xv72pqoxQDRHE-5" value="&lt;div style=&quot;font-family: &amp;quot;Source Code Pro&amp;quot;, monospace; font-size: 11.3pt;&quot;&gt;StorageEventListener&lt;br&gt;&lt;/div&gt;" style="shape=umlLifeline;perimeter=lifelinePerimeter;whiteSpace=wrap;html=1;container=0;dropTarget=0;collapsible=0;recursiveResize=0;outlineConnect=0;portConstraint=eastwest;newEdgeStyle={&quot;edgeStyle&quot;:&quot;elbowEdgeStyle&quot;,&quot;elbow&quot;:&quot;vertical&quot;,&quot;curved&quot;:0,&quot;rounded&quot;:0};" parent="1" vertex="1">
          <mxGeometry x="390" y="40" width="190" height="480" as="geometry" />
        </mxCell>
        <mxCell id="aM9ryv3xv72pqoxQDRHE-6" value="" style="html=1;points=[];perimeter=orthogonalPerimeter;outlineConnect=0;targetShapes=umlLifeline;portConstraint=eastwest;newEdgeStyle={&quot;edgeStyle&quot;:&quot;elbowEdgeStyle&quot;,&quot;elbow&quot;:&quot;vertical&quot;,&quot;curved&quot;:0,&quot;rounded&quot;:0};" parent="aM9ryv3xv72pqoxQDRHE-5" vertex="1">
          <mxGeometry x="90" y="65" width="10" height="55" as="geometry" />
        </mxCell>
        <mxCell id="aM9ryv3xv72pqoxQDRHE-7" value="new" style="html=1;verticalAlign=bottom;endArrow=block;edgeStyle=elbowEdgeStyle;elbow=vertical;curved=0;rounded=0;" parent="1" source="aM9ryv3xv72pqoxQDRHE-2" target="aM9ryv3xv72pqoxQDRHE-6" edge="1">
          <mxGeometry relative="1" as="geometry">
            <mxPoint x="195" y="130" as="sourcePoint" />
            <Array as="points">
              <mxPoint x="180" y="120" />
            </Array>
          </mxGeometry>
        </mxCell>
        <mxCell id="R8YRZGteAIU25TCS1daA-3" value="&lt;div style=&quot;font-family: &amp;quot;Source Code Pro&amp;quot;, monospace; font-size: 11.3pt;&quot;&gt;&lt;div style=&quot;font-size: 11.3pt;&quot;&gt;IStorageManager&lt;/div&gt;&lt;/div&gt;" style="shape=umlLifeline;perimeter=lifelinePerimeter;whiteSpace=wrap;html=1;container=0;dropTarget=0;collapsible=0;recursiveResize=0;outlineConnect=0;portConstraint=eastwest;newEdgeStyle={&quot;edgeStyle&quot;:&quot;elbowEdgeStyle&quot;,&quot;elbow&quot;:&quot;vertical&quot;,&quot;curved&quot;:0,&quot;rounded&quot;:0};" parent="1" vertex="1">
          <mxGeometry x="610" y="40" width="200" height="480" as="geometry" />
        </mxCell>
        <mxCell id="R8YRZGteAIU25TCS1daA-22" style="edgeStyle=elbowEdgeStyle;rounded=0;orthogonalLoop=1;jettySize=auto;html=1;elbow=vertical;curved=0;" parent="R8YRZGteAIU25TCS1daA-3" source="R8YRZGteAIU25TCS1daA-4" target="R8YRZGteAIU25TCS1daA-3" edge="1">
          <mxGeometry relative="1" as="geometry" />
        </mxCell>
        <mxCell id="R8YRZGteAIU25TCS1daA-4" value="" style="html=1;points=[];perimeter=orthogonalPerimeter;outlineConnect=0;targetShapes=umlLifeline;portConstraint=eastwest;newEdgeStyle={&quot;edgeStyle&quot;:&quot;elbowEdgeStyle&quot;,&quot;elbow&quot;:&quot;vertical&quot;,&quot;curved&quot;:0,&quot;rounded&quot;:0};" parent="R8YRZGteAIU25TCS1daA-3" vertex="1">
          <mxGeometry x="95" y="200" width="10" height="50" as="geometry" />
        </mxCell>
        <mxCell id="R8YRZGteAIU25TCS1daA-5" value="&lt;div style=&quot;font-family: &amp;quot;Source Code Pro&amp;quot;, monospace; font-size: 11.3pt;&quot;&gt;&lt;font style=&quot;&quot; color=&quot;#000000&quot;&gt;StorageManager&lt;/font&gt;&lt;/div&gt;" style="shape=umlLifeline;perimeter=lifelinePerimeter;whiteSpace=wrap;html=1;container=0;dropTarget=0;collapsible=0;recursiveResize=0;outlineConnect=0;portConstraint=eastwest;newEdgeStyle={&quot;edgeStyle&quot;:&quot;elbowEdgeStyle&quot;,&quot;elbow&quot;:&quot;vertical&quot;,&quot;curved&quot;:0,&quot;rounded&quot;:0};" parent="1" vertex="1">
          <mxGeometry x="210" y="40" width="140" height="480" as="geometry" />
        </mxCell>
        <mxCell id="R8YRZGteAIU25TCS1daA-6" value="" style="html=1;points=[];perimeter=orthogonalPerimeter;outlineConnect=0;targetShapes=umlLifeline;portConstraint=eastwest;newEdgeStyle={&quot;edgeStyle&quot;:&quot;elbowEdgeStyle&quot;,&quot;elbow&quot;:&quot;vertical&quot;,&quot;curved&quot;:0,&quot;rounded&quot;:0};" parent="R8YRZGteAIU25TCS1daA-5" vertex="1">
          <mxGeometry x="65" y="180" width="10" height="50" as="geometry" />
        </mxCell>
        <mxCell id="R8YRZGteAIU25TCS1daA-8" value="onResume" style="html=1;verticalAlign=bottom;startArrow=oval;endArrow=block;startSize=8;edgeStyle=elbowEdgeStyle;elbow=vertical;curved=0;rounded=0;" parent="1" target="R8YRZGteAIU25TCS1daA-9" edge="1">
          <mxGeometry relative="1" as="geometry">
            <mxPoint x="-10" y="209.73" as="sourcePoint" />
            <mxPoint x="87.99999999999977" y="209.83344827586208" as="targetPoint" />
            <Array as="points">
              <mxPoint x="-20" y="210" />
            </Array>
          </mxGeometry>
        </mxCell>
        <mxCell id="R8YRZGteAIU25TCS1daA-10" value="" style="edgeStyle=elbowEdgeStyle;rounded=0;orthogonalLoop=1;jettySize=auto;html=1;elbow=vertical;curved=0;" parent="1" source="R8YRZGteAIU25TCS1daA-9" target="R8YRZGteAIU25TCS1daA-6" edge="1">
          <mxGeometry relative="1" as="geometry" />
        </mxCell>
        <mxCell id="R8YRZGteAIU25TCS1daA-17" value="registerListener" style="edgeLabel;html=1;align=center;verticalAlign=middle;resizable=0;points=[];" parent="R8YRZGteAIU25TCS1daA-10" vertex="1" connectable="0">
          <mxGeometry x="-0.1807" y="-1" relative="1" as="geometry">
            <mxPoint x="10" y="-11" as="offset" />
          </mxGeometry>
        </mxCell>
        <mxCell id="R8YRZGteAIU25TCS1daA-18" value="" style="edgeStyle=elbowEdgeStyle;rounded=0;orthogonalLoop=1;jettySize=auto;html=1;elbow=vertical;curved=0;" parent="1" edge="1">
          <mxGeometry relative="1" as="geometry">
            <mxPoint x="285" y="250.27586206896558" as="sourcePoint" />
            <mxPoint x="705" y="250.27586206896558" as="targetPoint" />
          </mxGeometry>
        </mxCell>
        <mxCell id="R8YRZGteAIU25TCS1daA-19" value="registerListener" style="edgeLabel;html=1;align=center;verticalAlign=middle;resizable=0;points=[];" parent="1" vertex="1" connectable="0">
          <mxGeometry x="540.0031034482759" y="239.99724137931034" as="geometry" />
        </mxCell>
        <mxCell id="R8YRZGteAIU25TCS1daA-20" value="&lt;div style=&quot;font-family: &amp;quot;Source Code Pro&amp;quot;, monospace; font-size: 11.3pt;&quot;&gt;&lt;div style=&quot;font-size: 11.3pt;&quot;&gt;StorageManagerService&lt;/div&gt;&lt;/div&gt;" style="shape=umlLifeline;perimeter=lifelinePerimeter;whiteSpace=wrap;html=1;container=0;dropTarget=0;collapsible=0;recursiveResize=0;outlineConnect=0;portConstraint=eastwest;newEdgeStyle={&quot;edgeStyle&quot;:&quot;elbowEdgeStyle&quot;,&quot;elbow&quot;:&quot;vertical&quot;,&quot;curved&quot;:0,&quot;rounded&quot;:0};" parent="1" vertex="1">
          <mxGeometry x="860" y="40" width="200" height="480" as="geometry" />
        </mxCell>
        <mxCell id="R8YRZGteAIU25TCS1daA-23" value="" style="html=1;points=[];perimeter=orthogonalPerimeter;outlineConnect=0;targetShapes=umlLifeline;portConstraint=eastwest;newEdgeStyle={&quot;edgeStyle&quot;:&quot;elbowEdgeStyle&quot;,&quot;elbow&quot;:&quot;vertical&quot;,&quot;curved&quot;:0,&quot;rounded&quot;:0};" parent="R8YRZGteAIU25TCS1daA-20" vertex="1">
          <mxGeometry x="95" y="205" width="10" height="50" as="geometry" />
        </mxCell>
        <mxCell id="R8YRZGteAIU25TCS1daA-24" value="" style="edgeStyle=elbowEdgeStyle;rounded=0;orthogonalLoop=1;jettySize=auto;html=1;elbow=vertical;curved=0;" parent="1" source="R8YRZGteAIU25TCS1daA-4" target="R8YRZGteAIU25TCS1daA-23" edge="1">
          <mxGeometry relative="1" as="geometry" />
        </mxCell>
        <mxCell id="R8YRZGteAIU25TCS1daA-27" value="registerListener" style="edgeLabel;html=1;align=center;verticalAlign=middle;resizable=0;points=[];" parent="1" vertex="1" connectable="0">
          <mxGeometry x="820.0031034482759" y="259.99724137931037" as="geometry" />
        </mxCell>
        <mxCell id="R8YRZGteAIU25TCS1daA-28" value="&lt;div style=&quot;font-family: &amp;quot;Source Code Pro&amp;quot;, monospace; font-size: 11.3pt;&quot;&gt;&lt;div style=&quot;font-size: 11.3pt;&quot;&gt;StorageManagerService.Callbacks&lt;/div&gt;&lt;/div&gt;" style="shape=umlLifeline;perimeter=lifelinePerimeter;whiteSpace=wrap;html=1;container=0;dropTarget=0;collapsible=0;recursiveResize=0;outlineConnect=0;portConstraint=eastwest;newEdgeStyle={&quot;edgeStyle&quot;:&quot;elbowEdgeStyle&quot;,&quot;elbow&quot;:&quot;vertical&quot;,&quot;curved&quot;:0,&quot;rounded&quot;:0};" parent="1" vertex="1">
          <mxGeometry x="1090" y="40" width="300" height="480" as="geometry" />
        </mxCell>
        <mxCell id="R8YRZGteAIU25TCS1daA-30" value="" style="html=1;points=[];perimeter=orthogonalPerimeter;outlineConnect=0;targetShapes=umlLifeline;portConstraint=eastwest;newEdgeStyle={&quot;edgeStyle&quot;:&quot;elbowEdgeStyle&quot;,&quot;elbow&quot;:&quot;vertical&quot;,&quot;curved&quot;:0,&quot;rounded&quot;:0};" parent="R8YRZGteAIU25TCS1daA-28" vertex="1">
          <mxGeometry x="145" y="220" width="10" height="50" as="geometry" />
        </mxCell>
        <mxCell id="R8YRZGteAIU25TCS1daA-33" value="" style="html=1;points=[];perimeter=orthogonalPerimeter;outlineConnect=0;targetShapes=umlLifeline;portConstraint=eastwest;newEdgeStyle={&quot;edgeStyle&quot;:&quot;elbowEdgeStyle&quot;,&quot;elbow&quot;:&quot;vertical&quot;,&quot;curved&quot;:0,&quot;rounded&quot;:0};" parent="R8YRZGteAIU25TCS1daA-28" vertex="1">
          <mxGeometry x="145" y="300" width="10" height="90" as="geometry" />
        </mxCell>
        <mxCell id="R8YRZGteAIU25TCS1daA-36" style="edgeStyle=elbowEdgeStyle;rounded=0;orthogonalLoop=1;jettySize=auto;html=1;elbow=vertical;curved=0;" parent="R8YRZGteAIU25TCS1daA-28" source="R8YRZGteAIU25TCS1daA-33" target="R8YRZGteAIU25TCS1daA-33" edge="1">
          <mxGeometry relative="1" as="geometry" />
        </mxCell>
        <mxCell id="R8YRZGteAIU25TCS1daA-31" value="" style="edgeStyle=elbowEdgeStyle;rounded=0;orthogonalLoop=1;jettySize=auto;html=1;elbow=vertical;curved=0;" parent="1" source="R8YRZGteAIU25TCS1daA-23" target="R8YRZGteAIU25TCS1daA-30" edge="1">
          <mxGeometry relative="1" as="geometry" />
        </mxCell>
        <mxCell id="R8YRZGteAIU25TCS1daA-32" value="register" style="edgeLabel;html=1;align=center;verticalAlign=middle;resizable=0;points=[];" parent="1" vertex="1" connectable="0">
          <mxGeometry x="1100.0031034482759" y="269.99724137931037" as="geometry" />
        </mxCell>
        <mxCell id="R8YRZGteAIU25TCS1daA-37" value="invokeCallback" style="text;html=1;align=center;verticalAlign=middle;resizable=0;points=[];autosize=1;strokeColor=none;fillColor=none;" parent="1" vertex="1">
          <mxGeometry x="1265" y="370" width="100" height="30" as="geometry" />
        </mxCell>
        <mxCell id="R8YRZGteAIU25TCS1daA-40" style="edgeStyle=orthogonalEdgeStyle;rounded=0;orthogonalLoop=1;jettySize=auto;html=1;" parent="1" source="R8YRZGteAIU25TCS1daA-38" target="R8YRZGteAIU25TCS1daA-37" edge="1">
          <mxGeometry relative="1" as="geometry" />
        </mxCell>
        <mxCell id="R8YRZGteAIU25TCS1daA-38" value="接受外部事件消息触发回调:&lt;br&gt;MSG_VOLUME_STATE_CHANGED&lt;br&gt;MSG_DISK_SCANNED" style="shape=note;whiteSpace=wrap;html=1;backgroundOutline=1;darkOpacity=0.05;" parent="1" vertex="1">
          <mxGeometry x="1010" y="450" width="210" height="70" as="geometry" />
        </mxCell>
        <mxCell id="R8YRZGteAIU25TCS1daA-46" value="" style="edgeStyle=elbowEdgeStyle;rounded=0;orthogonalLoop=1;jettySize=auto;html=1;elbow=vertical;curved=0;" parent="1" source="R8YRZGteAIU25TCS1daA-42" target="R8YRZGteAIU25TCS1daA-45" edge="1">
          <mxGeometry relative="1" as="geometry" />
        </mxCell>
        <mxCell id="R8YRZGteAIU25TCS1daA-42" value="" style="html=1;points=[];perimeter=orthogonalPerimeter;outlineConnect=0;targetShapes=umlLifeline;portConstraint=eastwest;newEdgeStyle={&quot;edgeStyle&quot;:&quot;elbowEdgeStyle&quot;,&quot;elbow&quot;:&quot;vertical&quot;,&quot;curved&quot;:0,&quot;rounded&quot;:0};" parent="1" vertex="1">
          <mxGeometry x="480" y="380" width="10" height="90" as="geometry" />
        </mxCell>
        <mxCell id="R8YRZGteAIU25TCS1daA-43" value="" style="edgeStyle=elbowEdgeStyle;rounded=0;orthogonalLoop=1;jettySize=auto;html=1;elbow=vertical;curved=0;dashed=1;" parent="1" edge="1">
          <mxGeometry relative="1" as="geometry">
            <mxPoint x="1235" y="419" as="sourcePoint" />
            <mxPoint x="490" y="419" as="targetPoint" />
          </mxGeometry>
        </mxCell>
        <mxCell id="LobHO_V0ZuC5417ycM08-1" value="showMountVolumes" style="edgeLabel;html=1;align=center;verticalAlign=middle;resizable=0;points=[];" vertex="1" connectable="0" parent="1">
          <mxGeometry x="225.99764705882342" y="413.0005882352941" as="geometry">
            <mxPoint x="-5" y="15" as="offset" />
          </mxGeometry>
        </mxCell>
        <mxCell id="LobHO_V0ZuC5417ycM08-2" value="onVolumeStateChange" style="edgeLabel;html=1;align=center;verticalAlign=middle;resizable=0;points=[];" vertex="1" connectable="0" parent="1">
          <mxGeometry x="636.9976470588234" y="394.0005882352941" as="geometry">
            <mxPoint x="-5" y="15" as="offset" />
          </mxGeometry>
        </mxCell>
      </root>
    </mxGraphModel>
  </diagram>
</mxfile>
